<svg xmlns="http://www.w3.org/2000/svg" viewBox="0 0 400 107" width="400" height="107">
  <path fill="#000000" fill-rule="evenodd" d="M400.00 106.16 C400.00 105.70 399.84 105.00 399.64 104.60 C399.44 104.20 399.15 102.87 399.00 101.65 C398.85 100.42 398.61 99.20 398.46 98.93 C398.32 98.66 398.27 97.98 398.36 97.41 C398.44 96.84 398.53 96.09 398.57 95.75 L398.62 95.12 L391.50 95.00 C387.58 94.93 384.23 94.78 384.06 94.67 C383.89 94.56 383.75 94.24 383.75 93.96 C383.75 93.67 383.36 93.08 382.87 92.64 C381.87 91.72 381.79 91.38 382.50 91.00 C383.05 90.70 383.16 90.13 382.71 89.85 C382.54 89.74 382.19 89.95 381.89 90.33 C381.59 90.70 381.26 91.00 381.14 91.00 C381.01 91.00 380.71 91.19 380.46 91.41 C380.20 91.64 379.58 91.90 379.06 91.98 C378.16 92.13 378.12 92.18 377.99 93.31 C377.79 95.06 377.22 95.28 376.91 93.72 C376.68 92.56 376.31 92.25 375.20 92.25 C374.07 92.25 373.25 91.89 373.25 91.39 C373.25 91.21 373.42 90.99 373.62 90.91 C373.83 90.83 374.00 90.48 374.00 90.13 C374.00 89.67 373.87 89.50 373.50 89.50 C373.19 89.50 373.00 89.67 373.00 89.95 C373.00 90.19 372.50 90.81 371.89 91.32 C370.90 92.15 370.63 92.25 369.37 92.25 C367.53 92.25 367.08 92.52 366.88 93.75 C366.75 94.50 366.57 94.78 366.17 94.86 C365.87 94.92 363.05 95.03 359.90 95.11 L354.17 95.25 L353.34 94.62 C352.53 93.99 352.50 93.99 351.83 94.43 C351.25 94.81 350.45 94.89 346.60 94.96 L342.04 95.05 L341.62 94.40 L341.19 93.75 L333.47 93.75 C329.18 93.75 325.75 93.65 325.75 93.53 C325.75 93.41 326.25 93.18 326.87 93.03 C327.48 92.87 328.36 92.41 328.83 92.01 L329.66 91.27 L336.75 91.27 C342.29 91.28 343.87 91.21 344.04 90.95 C344.31 90.51 344.30 90.06 344.01 89.88 C343.87 89.80 339.48 89.74 334.24 89.74 C326.25 89.76 324.61 89.70 324.05 89.39 C323.68 89.18 322.90 88.90 322.32 88.75 C321.74 88.61 321.20 88.38 321.12 88.24 C321.03 88.10 319.39 88.00 317.24 88.00 C314.22 88.00 313.22 87.91 312.06 87.52 C311.27 87.26 310.09 86.97 309.43 86.88 C308.77 86.79 307.86 86.56 307.40 86.37 C306.15 85.85 303.47 85.64 302.43 85.98 C301.25 86.37 301.00 87.15 301.00 90.40 C301.00 92.77 300.96 93.01 300.47 93.27 C300.05 93.49 299.86 93.47 299.57 93.18 C299.24 92.85 299.25 92.43 299.61 89.59 C300.16 85.34 300.16 85.31 300.81 85.11 C301.12 85.02 301.83 84.57 302.38 84.12 C303.38 83.31 303.42 83.30 307.51 83.00 C309.77 82.83 311.73 82.63 311.85 82.56 C311.98 82.48 313.27 82.38 314.73 82.33 C316.18 82.28 317.52 82.19 317.69 82.13 C318.09 81.98 318.09 80.84 317.69 80.69 C317.52 80.63 315.52 80.68 313.25 80.81 C306.63 81.17 300.33 81.18 299.97 80.82 C299.65 80.50 299.64 80.42 299.33 73.95 C299.13 69.86 298.92 68.96 298.25 69.37 C298.09 69.47 298.02 69.80 298.10 70.09 C298.33 70.96 297.96 74.53 297.62 74.66 C297.46 74.72 296.91 74.38 296.41 73.89 C295.90 73.40 295.36 73.00 295.20 73.00 C295.04 73.00 294.37 72.55 293.72 72.00 C293.07 71.45 292.42 71.00 292.28 71.00 C292.14 71.00 291.93 70.85 291.82 70.67 C291.71 70.49 291.03 69.97 290.31 69.51 C289.59 69.04 289.00 68.57 289.00 68.46 C289.00 68.35 288.63 68.10 288.19 67.91 C287.74 67.73 286.90 67.19 286.33 66.72 C285.75 66.26 284.20 65.11 282.88 64.17 C281.57 63.23 280.56 62.36 280.64 62.23 C280.88 61.84 282.08 61.98 282.94 62.50 C283.39 62.77 284.23 63.07 284.81 63.16 C285.40 63.24 286.04 63.46 286.25 63.64 C286.46 63.82 287.22 64.04 287.93 64.14 C288.65 64.24 289.37 64.47 289.52 64.65 C289.68 64.84 290.35 65.06 291.02 65.15 C291.69 65.24 292.37 65.47 292.52 65.65 C292.68 65.84 293.35 66.06 294.02 66.15 C294.69 66.24 295.37 66.47 295.53 66.66 C295.68 66.85 296.12 67.00 296.50 67.00 C296.87 67.00 297.48 67.23 297.84 67.52 C298.51 68.05 299.00 67.99 299.00 67.37 C299.00 66.77 297.99 66.04 296.91 65.86 C296.35 65.76 295.66 65.54 295.38 65.37 C295.10 65.20 294.44 64.98 293.90 64.88 C293.37 64.79 292.69 64.56 292.40 64.38 C292.11 64.20 291.41 63.97 290.84 63.88 C290.26 63.79 289.59 63.56 289.34 63.36 C289.08 63.17 288.54 63.01 288.12 63.01 C287.71 63.00 286.95 62.77 286.43 62.50 C285.92 62.22 285.25 62.00 284.93 62.00 C284.62 62.00 283.98 61.79 283.50 61.54 C283.02 61.28 282.18 60.99 281.62 60.89 C281.07 60.79 280.47 60.57 280.27 60.42 C279.97 60.16 278.18 59.88 275.62 59.68 L274.88 59.62 L274.81 62.59 C274.76 64.53 274.84 65.68 275.02 65.90 C275.54 66.53 275.75 65.99 275.75 63.98 C275.75 61.82 276.04 61.36 276.98 62.03 C277.24 62.22 278.87 63.44 280.62 64.75 C282.36 66.06 284.42 67.60 285.20 68.18 C285.99 68.76 286.79 69.38 286.99 69.56 C287.19 69.73 287.54 69.99 287.77 70.12 C289.06 70.91 290.21 71.76 290.75 72.34 C291.10 72.70 291.50 72.99 291.65 73.00 C291.80 73.00 292.18 73.22 292.50 73.50 C292.82 73.77 293.14 74.00 293.23 74.00 C293.31 74.01 293.87 74.46 294.48 75.00 C295.09 75.55 295.69 76.00 295.81 76.00 C295.93 76.00 296.42 76.29 296.89 76.65 C297.70 77.27 297.75 77.40 297.75 78.80 C297.75 80.82 297.48 81.25 296.21 81.25 C295.50 81.25 294.98 81.07 294.47 80.63 C294.06 80.30 293.32 79.94 292.81 79.85 C292.29 79.76 291.45 79.47 290.94 79.21 C290.13 78.81 290.00 78.62 290.00 77.89 C290.00 76.76 289.44 76.25 288.23 76.25 C287.02 76.25 286.90 75.69 287.99 75.13 C289.08 74.57 289.69 73.25 288.87 73.25 C288.39 73.25 287.47 73.84 286.42 74.83 C285.98 75.24 285.24 75.73 284.77 75.93 C283.99 76.26 283.87 76.25 283.21 75.76 C282.59 75.30 282.21 75.24 280.32 75.30 C278.15 75.37 278.14 75.38 277.57 76.22 C277.26 76.69 277.00 77.41 277.00 77.83 C277.00 78.25 276.84 78.76 276.65 78.98 C276.21 79.48 275.86 84.70 276.23 85.25 C276.40 85.50 277.07 85.67 278.30 85.75 L280.12 85.88 L280.20 86.66 C280.31 87.82 279.91 89.11 279.41 89.21 C278.78 89.33 278.32 88.85 278.14 87.87 C277.87 86.45 276.25 86.32 275.73 87.68 C275.14 89.24 275.09 89.25 270.20 89.25 C265.74 89.25 265.73 89.25 265.09 88.61 C264.07 87.59 264.61 87.25 267.23 87.25 C268.58 87.25 269.51 87.14 269.70 86.95 C269.93 86.72 270.07 86.72 270.30 86.95 C270.69 87.34 273.31 87.34 273.70 86.95 C274.09 86.56 274.09 84.69 273.70 84.30 C273.47 84.07 270.14 84.00 260.24 84.00 C247.44 84.00 247.06 83.99 246.50 83.50 C246.14 83.19 245.56 83.00 244.97 83.00 C244.10 83.00 244.00 83.07 243.80 83.81 C243.56 84.76 242.67 85.07 242.32 84.33 C242.20 84.08 242.19 82.81 242.29 81.50 C242.39 80.19 242.64 77.19 242.83 74.83 C243.08 71.71 243.29 70.36 243.59 69.90 C243.81 69.55 244.00 69.11 244.00 68.92 C244.00 68.73 244.22 68.37 244.50 68.13 C244.88 67.78 245.00 67.36 245.00 66.34 C245.00 65.01 245.41 64.24 246.26 63.95 C246.75 63.79 246.35 63.00 245.79 63.00 C245.53 63.00 245.03 62.78 244.68 62.50 C244.33 62.23 243.87 62.00 243.66 62.00 C242.96 62.00 242.91 61.44 243.58 60.95 L244.23 60.47 L244.10 56.67 C243.94 52.00 243.85 51.35 243.24 50.74 C242.50 50.00 240.89 50.08 239.80 50.91 L238.93 51.58 L239.07 55.02 C239.18 57.84 239.14 58.49 238.85 58.60 C238.13 58.88 237.75 58.47 237.75 57.40 C237.75 55.72 236.75 54.72 235.99 55.64 C235.57 56.15 235.35 55.89 234.79 54.18 C234.41 53.03 234.37 52.57 234.58 51.78 C234.79 50.97 234.77 50.73 234.43 50.39 C233.91 49.87 233.55 48.62 233.24 46.18 C233.10 45.11 232.88 43.96 232.75 43.63 C232.62 43.29 232.34 41.97 232.12 40.70 L231.71 38.38 L232.47 37.71 C232.95 37.27 233.65 36.97 234.42 36.86 C235.08 36.76 235.82 36.59 236.05 36.47 C236.28 36.35 237.86 36.18 239.55 36.11 C242.60 35.97 243.36 35.76 242.83 35.23 C242.53 34.93 238.50 34.87 237.40 35.14 C236.49 35.37 235.75 34.68 235.75 33.61 C235.75 32.73 236.03 32.32 238.68 29.38 C239.63 28.33 240.25 27.42 240.25 27.08 C240.25 25.95 239.30 26.73 236.43 30.19 C233.82 33.34 233.73 33.11 233.76 23.22 C233.77 18.51 233.68 15.33 233.54 15.19 C232.83 14.48 232.75 15.44 232.75 24.11 C232.75 32.31 232.72 32.99 232.29 33.51 C231.65 34.30 231.25 33.94 231.25 32.55 C231.25 31.58 231.12 31.25 230.54 30.70 C230.15 30.33 229.53 29.95 229.17 29.86 C228.81 29.77 228.40 29.55 228.24 29.37 C228.09 29.18 227.65 28.96 227.25 28.88 C226.86 28.79 226.49 28.57 226.42 28.39 C226.35 28.21 225.90 27.99 225.42 27.90 C224.94 27.81 224.48 27.57 224.41 27.37 C224.33 27.17 224.05 27.00 223.78 27.00 C223.51 27.00 222.95 26.72 222.55 26.38 C221.67 25.64 220.75 25.54 220.75 26.19 C220.75 26.43 221.31 27.41 222.00 28.38 C222.68 29.34 223.66 30.74 224.18 31.50 C224.69 32.26 225.21 32.94 225.33 33.03 C225.45 33.11 225.68 33.41 225.84 33.68 C226.47 34.77 227.49 36.22 227.74 36.37 C228.19 36.65 228.02 37.45 227.36 38.18 C226.11 39.53 226.00 39.67 226.00 39.85 C226.00 39.95 225.49 40.67 224.87 41.45 C223.56 43.09 223.37 43.34 221.87 45.38 C221.26 46.20 220.59 47.10 220.38 47.38 C220.17 47.65 219.50 48.55 218.88 49.38 C218.27 50.20 217.59 51.10 217.39 51.38 C216.09 53.09 214.70 54.95 214.37 55.38 C214.16 55.65 213.49 56.55 212.88 57.38 C212.26 58.20 211.67 58.99 211.57 59.12 C211.46 59.26 210.95 59.95 210.43 60.66 C209.49 61.96 209.09 62.25 208.24 62.25 C207.44 62.25 207.43 61.77 208.23 60.86 C209.00 59.98 209.19 59.40 208.78 59.14 C208.52 58.98 207.43 59.95 207.03 60.70 C206.86 61.02 206.59 61.17 206.37 61.09 C206.06 60.97 206.00 60.08 206.00 55.48 L206.00 50.02 L204.54 48.82 C203.74 48.16 202.84 47.26 202.54 46.81 C202.08 46.12 201.85 46.00 200.99 46.00 C200.43 46.00 199.63 46.18 199.20 46.40 C198.11 46.96 195.74 47.15 194.98 46.73 C194.65 46.55 193.96 46.39 193.46 46.39 C192.58 46.38 192.56 46.40 192.68 47.15 C192.75 47.60 192.64 48.24 192.40 48.70 C192.07 49.34 192.00 50.39 192.00 54.72 C192.00 57.79 191.90 60.03 191.76 60.12 C191.63 60.20 191.34 59.98 191.11 59.63 C190.19 58.24 188.00 59.24 188.00 61.06 C188.00 61.46 187.77 62.08 187.50 62.44 C187.11 62.92 187.03 63.28 187.15 63.94 C187.29 64.69 187.25 64.79 186.84 64.71 C186.57 64.66 186.26 64.26 186.10 63.77 C185.78 62.79 184.89 61.96 184.38 62.16 C184.19 62.23 183.96 62.60 183.88 62.98 C183.80 63.36 183.28 64.15 182.74 64.73 C182.19 65.31 181.75 66.02 181.75 66.29 C181.75 66.56 182.12 67.12 182.56 67.53 C185.12 69.84 185.28 70.32 183.88 71.39 C182.91 72.13 182.81 72.58 183.37 73.66 C183.58 74.05 183.74 74.88 183.73 75.50 C183.71 76.86 183.15 79.64 182.91 79.58 C182.82 79.56 182.65 79.50 182.54 79.46 C182.43 79.41 181.08 77.80 179.53 75.88 C176.76 72.43 175.96 71.80 175.80 72.93 C175.74 73.31 176.37 74.27 177.92 76.18 C180.54 79.39 180.55 79.40 181.50 80.45 C182.35 81.38 182.42 81.63 181.85 81.85 C181.11 82.13 176.86 82.01 176.55 81.70 C176.37 81.52 176.25 80.67 176.25 79.61 C176.25 77.53 175.96 77.11 174.66 77.32 C173.53 77.50 173.19 77.23 173.02 75.96 L172.88 74.88 L170.58 74.80 L168.29 74.73 L168.33 73.60 C168.37 72.67 168.55 72.28 169.31 71.43 C170.36 70.28 170.43 70.05 169.85 69.83 C169.45 69.68 168.97 70.12 167.03 72.47 C166.56 73.04 166.08 73.50 165.96 73.50 C165.85 73.50 165.75 72.66 165.75 71.64 C165.75 69.54 165.44 69.00 164.22 69.00 C163.80 69.00 163.42 68.84 163.34 68.63 C163.20 68.25 164.03 66.72 164.80 65.95 C165.05 65.70 165.25 65.33 165.25 65.13 C165.25 64.38 164.33 64.77 163.51 65.86 C163.06 66.46 162.42 67.03 162.09 67.11 C161.77 67.19 161.50 67.37 161.50 67.50 C161.50 67.63 161.16 67.91 160.75 68.13 C160.16 68.43 159.88 68.45 159.46 68.23 C158.96 67.96 158.94 67.82 159.10 65.80 C159.20 64.46 159.40 63.50 159.63 63.24 C159.88 62.97 160.00 62.30 160.00 61.24 C160.00 59.85 160.08 59.58 160.61 59.13 C160.95 58.85 161.26 58.40 161.30 58.12 C161.41 57.43 160.53 57.59 159.87 58.39 C159.54 58.78 159.09 59.00 158.62 59.00 C158.21 59.00 157.54 59.23 157.12 59.50 C155.73 60.42 154.75 59.91 154.75 58.25 C154.75 57.71 154.64 57.21 154.50 57.12 C154.03 56.84 154.25 56.48 155.10 56.12 C155.81 55.82 155.96 55.61 156.06 54.82 C156.20 53.59 156.05 53.05 155.50 52.88 C155.10 52.75 155.04 52.20 154.88 47.18 L154.70 41.62 L155.35 40.25 C156.29 38.26 156.22 37.47 155.05 36.66 C154.53 36.30 153.92 36.00 153.70 36.00 C153.26 36.00 153.00 35.50 153.00 34.65 C153.00 34.35 152.87 33.97 152.71 33.81 C152.27 33.37 152.93 32.27 153.73 32.09 C154.09 32.01 155.09 31.73 155.96 31.47 C156.84 31.21 157.87 31.00 158.26 31.00 C159.13 31.00 159.96 30.29 159.46 29.97 C159.27 29.85 158.94 29.76 158.70 29.75 C158.47 29.75 158.04 29.41 157.75 29.00 C157.08 28.06 156.56 28.04 156.45 28.94 C156.39 29.52 156.26 29.62 155.63 29.62 C154.99 29.62 154.86 29.51 154.75 28.88 C154.65 28.31 154.47 28.10 154.00 28.04 C153.66 27.99 153.18 27.78 152.93 27.56 C152.53 27.20 152.45 27.21 151.92 27.71 C151.18 28.40 150.75 28.40 150.76 27.69 C150.77 26.48 152.22 25.43 154.32 25.12 C154.97 25.02 155.57 24.84 155.65 24.71 C155.73 24.58 155.82 22.78 155.86 20.71 C155.92 16.64 155.81 16.25 154.60 16.25 C154.25 16.25 153.72 15.97 153.40 15.62 C152.70 14.87 152.46 14.85 151.88 15.50 C151.30 16.14 150.45 16.14 149.87 15.50 C149.49 15.07 149.11 15.00 147.19 15.00 C145.33 15.00 144.85 15.08 144.32 15.50 C143.97 15.78 143.30 16.00 142.84 16.00 C142.03 16.00 141.88 16.17 141.99 16.96 C142.06 17.48 141.49 18.00 140.84 18.00 C140.52 18.00 140.23 17.97 140.20 17.94 C140.17 17.90 140.08 13.99 140.01 9.25 C139.89 1.81 139.82 0.62 139.50 0.62 C139.17 0.62 139.12 1.85 139.12 10.12 L139.12 19.62 L139.85 19.75 C140.26 19.82 140.63 20.01 140.68 20.17 C140.81 20.55 139.89 21.05 139.17 20.99 C138.07 20.90 137.75 21.01 137.75 21.46 C137.75 21.71 137.96 22.12 138.23 22.35 C138.49 22.59 138.78 23.09 138.86 23.46 C138.95 23.82 139.26 24.72 139.56 25.44 C139.97 26.46 140.04 26.91 139.85 27.44 C139.62 28.12 139.59 28.13 136.87 28.25 C134.45 28.36 134.12 28.43 134.04 28.84 C133.99 29.10 134.19 29.63 134.48 30.02 C134.96 30.67 135.00 31.04 134.98 34.68 C134.96 38.65 134.64 45.12 134.35 47.30 C134.27 47.98 134.33 48.86 134.50 49.38 C134.79 50.26 134.77 50.33 133.98 51.15 C133.51 51.63 132.90 52.00 132.58 52.00 C131.92 52.00 131.85 52.42 132.28 53.62 C132.54 54.33 132.50 54.47 131.95 55.03 C131.61 55.36 131.22 55.85 131.08 56.09 C130.94 56.34 130.45 56.62 129.99 56.72 C128.87 56.95 128.07 58.20 128.52 59.03 C128.76 59.49 128.73 59.74 128.36 60.44 C127.92 61.25 127.92 61.32 128.34 62.10 C128.67 62.71 128.77 63.44 128.75 65.02 C128.73 66.18 128.72 67.26 128.73 67.43 C128.74 67.60 129.12 67.90 129.57 68.09 C130.03 68.28 130.71 68.80 131.09 69.26 C131.79 70.08 131.79 70.10 131.71 73.28 C131.62 76.80 131.33 77.61 130.65 76.29 C130.43 75.87 130.25 74.98 130.24 74.32 C130.23 73.25 130.15 73.07 129.44 72.62 C128.93 72.31 128.59 71.85 128.49 71.35 C128.22 70.06 128.11 70.00 125.88 70.00 C124.72 70.00 123.49 69.89 123.14 69.76 C122.71 69.59 122.30 69.60 121.90 69.78 C121.41 70.01 121.11 69.94 120.16 69.38 C119.54 69.02 118.68 68.33 118.27 67.86 C117.52 67.00 116.50 66.70 116.50 67.33 C116.50 67.52 116.84 67.97 117.27 68.35 C118.39 69.35 118.16 69.85 116.52 70.00 C114.78 70.16 114.40 70.66 115.21 71.75 C115.53 72.18 115.75 72.71 115.70 72.94 C115.58 73.58 114.53 73.99 113.00 74.00 C112.24 74.01 110.84 74.18 109.88 74.38 C107.31 74.92 106.96 74.87 105.84 73.81 C105.29 73.30 102.99 71.12 100.73 68.97 C94.53 63.06 93.65 62.27 93.34 62.26 C93.19 62.25 92.87 62.54 92.64 62.89 C92.23 63.51 92.24 63.56 92.84 64.33 C93.19 64.77 95.79 67.49 98.62 70.38 C101.45 73.26 104.06 76.05 104.42 76.57 C104.89 77.24 105.13 78.02 105.29 79.32 C105.59 81.85 105.97 88.59 105.84 88.81 C105.61 89.18 105.01 88.99 104.73 88.47 C104.46 87.97 104.30 87.94 101.99 88.05 C99.39 88.18 98.83 88.05 99.08 87.40 C99.18 87.14 99.54 87.00 100.10 87.00 C100.96 87.00 101.53 86.62 102.00 85.75 C102.15 85.47 102.59 85.25 103.06 85.20 L103.88 85.12 L103.88 82.86 C103.88 81.12 103.77 80.45 103.43 79.93 C103.01 79.28 102.89 79.25 100.98 79.25 C99.65 79.25 98.72 79.38 98.22 79.64 C97.53 80.00 97.41 80.00 96.83 79.62 C96.38 79.33 95.86 79.24 95.04 79.32 C91.07 79.72 88.74 80.06 87.75 80.37 C87.13 80.57 85.91 80.85 85.04 80.98 C84.16 81.12 83.29 81.36 83.09 81.53 C82.71 81.85 82.07 81.40 80.77 79.88 C79.38 78.27 75.59 74.05 74.39 72.78 C72.06 70.30 71.13 69.30 70.57 68.63 C70.20 68.19 69.81 67.99 69.44 68.04 C68.54 68.17 68.59 69.11 69.54 70.23 C70.00 70.76 71.46 72.48 72.78 74.04 C74.10 75.60 75.61 77.33 76.12 77.88 C77.55 79.39 78.99 81.73 79.16 82.80 C79.25 83.33 79.41 83.82 79.53 83.90 C79.91 84.13 79.77 84.61 79.11 85.32 L78.47 86.01 L74.92 85.94 C71.52 85.88 71.37 85.85 71.13 85.31 C70.89 84.77 70.00 84.51 70.00 84.98 C70.00 85.98 67.96 86.33 67.00 85.50 C66.24 84.84 65.86 84.87 65.20 85.62 C64.80 86.09 64.41 86.25 63.69 86.25 C63.16 86.25 62.39 86.42 61.98 86.63 C61.42 86.92 60.59 87.00 58.56 86.95 L55.88 86.88 L55.79 86.12 C55.69 85.21 55.34 84.75 54.74 84.75 C54.49 84.75 54.03 84.41 53.71 83.99 C53.39 83.58 52.87 82.94 52.56 82.58 C52.25 82.22 52.00 81.62 52.00 81.24 C52.00 80.87 51.83 80.42 51.62 80.25 C51.42 80.08 51.25 79.80 51.25 79.62 C51.25 79.45 51.06 79.16 50.84 78.97 C50.48 78.68 50.39 78.69 50.15 79.10 C50.00 79.36 49.68 79.75 49.44 79.97 C48.85 80.50 48.89 81.33 49.55 82.49 C50.03 83.32 50.06 83.54 49.79 84.13 C49.51 84.74 49.39 84.80 48.55 84.66 C47.55 84.50 46.43 83.43 45.96 82.19 C45.65 81.35 45.19 81.31 44.68 82.06 C44.47 82.37 44.23 82.56 44.15 82.48 C44.06 82.39 44.22 82.04 44.50 81.69 C45.09 80.93 45.14 80.18 44.64 79.76 C44.34 79.51 44.15 79.58 43.64 80.09 C42.94 80.79 42.77 82.09 43.34 82.43 C43.52 82.54 43.74 83.04 43.82 83.55 C43.95 84.40 43.90 84.51 43.10 84.98 C42.63 85.26 42.16 85.69 42.07 85.93 C41.98 86.18 41.79 86.46 41.64 86.56 C41.22 86.85 29.29 86.79 28.73 86.49 C28.43 86.33 28.25 85.97 28.25 85.54 C28.25 84.73 27.69 83.85 27.32 84.08 C27.18 84.17 26.99 84.69 26.90 85.24 C26.70 86.50 26.14 86.57 25.75 85.38 C25.59 84.89 25.31 84.50 25.13 84.50 C24.95 84.50 24.57 84.89 24.28 85.38 L23.77 86.25 L20.29 86.25 C17.77 86.25 16.74 86.16 16.55 85.93 C16.40 85.75 16.19 85.06 16.08 84.39 C15.90 83.33 15.77 83.13 15.12 82.92 C14.71 82.79 14.20 82.53 13.98 82.34 C13.76 82.15 13.35 82.00 13.06 82.00 C12.52 82.00 10.01 79.39 10.00 78.83 C10.00 78.33 9.55 78.21 9.00 78.55 C8.55 78.83 8.44 78.81 8.22 78.44 C8.09 78.20 7.76 78.00 7.49 78.00 C6.81 78.00 6.85 78.92 7.56 79.64 C8.74 80.86 9.00 81.17 9.00 81.43 C9.00 81.57 9.24 81.85 9.53 82.04 C9.99 82.35 10.01 82.43 9.68 82.71 C9.36 82.97 9.11 82.85 8.15 81.94 C7.52 81.34 7.00 80.77 7.00 80.66 C7.00 80.26 5.40 78.50 5.04 78.50 C4.83 78.50 4.46 78.32 4.22 78.09 C3.97 77.87 3.59 77.76 3.38 77.84 C2.61 78.13 2.71 78.71 3.70 79.73 C4.24 80.29 4.83 81.08 4.99 81.49 C5.26 82.14 5.24 82.31 4.78 82.90 C4.48 83.28 4.25 83.93 4.25 84.41 C4.25 85.00 4.13 85.25 3.87 85.25 C3.40 85.25 3.00 84.26 3.00 83.10 C3.00 82.62 2.81 81.87 2.58 81.43 C2.22 80.75 2.14 79.61 2.05 73.92 C1.95 67.89 1.90 67.23 1.53 67.30 C1.17 67.37 1.13 67.99 1.13 72.88 C1.13 75.90 1.18 79.33 1.24 80.50 C1.36 82.72 1.03 84.43 0.37 85.10 C-0.12 85.59 -0.12 87.72 0.36 88.10 C0.56 88.25 1.07 89.39 1.48 90.62 C1.89 91.86 2.52 93.66 2.89 94.62 C3.25 95.59 3.70 96.88 3.89 97.50 C4.87 100.83 5.86 102.55 8.17 104.95 L10.12 106.98 L205.06 106.99 L400.00 107.00 L400.00 106.16 Z M246.92 89.08 C246.61 88.77 246.75 88.05 247.15 87.90 C247.73 87.68 255.50 87.72 255.50 87.94 C255.50 88.05 255.32 88.39 255.11 88.69 C254.74 89.23 254.57 89.25 250.90 89.25 C248.80 89.25 247.01 89.17 246.92 89.08 Z M221.54 88.67 C221.38 88.49 221.17 87.89 221.06 87.36 C220.90 86.62 220.72 86.36 220.31 86.30 C219.80 86.22 219.77 86.10 219.82 84.17 L219.88 82.12 L216.77 82.05 C214.19 82.00 213.38 82.07 211.97 82.51 C211.03 82.80 209.96 83.00 209.57 82.96 L208.88 82.88 L208.88 80.38 L208.88 77.88 L218.00 77.88 C226.24 77.88 227.13 77.91 227.20 78.28 C227.25 78.55 227.01 78.78 226.51 78.96 C225.58 79.28 225.55 79.64 226.41 80.53 C227.13 81.29 227.07 82.00 226.27 82.00 C225.81 82.00 225.79 82.14 225.90 84.99 C226.06 88.93 226.02 89.00 223.65 89.00 C222.43 89.00 221.72 88.89 221.54 88.67 Z M256.25 86.62 C256.25 86.42 256.36 86.25 256.50 86.25 C256.64 86.25 256.75 86.42 256.75 86.62 C256.75 86.83 256.64 87.00 256.50 87.00 C256.36 87.00 256.25 86.83 256.25 86.62 Z M248.79 85.98 C248.00 85.67 248.23 85.14 249.21 85.05 C250.09 84.96 250.61 85.62 249.97 86.02 C249.56 86.28 249.54 86.28 248.79 85.98 Z M253.75 86.03 C253.41 85.93 253.12 85.69 253.12 85.49 C253.12 85.22 253.45 85.12 254.35 85.12 C255.73 85.12 256.09 85.51 255.12 85.96 C254.77 86.12 254.45 86.24 254.43 86.23 C254.40 86.21 254.09 86.12 253.75 86.03 Z M258.75 85.96 C258.75 85.40 259.29 85.00 260.04 85.00 C260.79 85.00 261.19 85.41 260.82 85.78 C260.69 85.91 260.17 86.09 259.67 86.17 C258.97 86.28 258.75 86.23 258.75 85.96 Z M264.68 85.94 C263.65 85.59 263.99 85.12 265.27 85.12 C266.05 85.12 266.38 85.23 266.38 85.47 C266.38 85.97 265.49 86.22 264.68 85.94 Z M271.50 85.76 C271.23 85.58 271.20 85.45 271.41 85.24 C271.80 84.85 272.88 85.04 272.88 85.50 C272.88 85.94 272.03 86.10 271.50 85.76 Z M125.41 82.88 C124.94 82.41 124.88 79.66 125.34 79.28 C125.50 79.15 126.70 79.00 128.00 78.95 C129.31 78.90 130.54 78.81 130.75 78.74 C131.06 78.64 131.12 78.99 131.12 80.88 L131.12 83.12 L128.46 83.20 C126.32 83.25 125.73 83.19 125.41 82.88 Z M49.90 82.03 C49.66 81.66 50.21 80.45 50.56 80.56 C51.04 80.72 50.96 82.10 50.46 82.20 C50.23 82.24 49.98 82.17 49.90 82.03 Z M222.25 76.21 C219.02 76.10 214.58 75.92 212.38 75.81 L208.38 75.62 L208.17 74.17 C208.03 73.10 208.07 72.37 208.36 71.39 C208.58 70.65 208.75 69.64 208.75 69.13 C208.75 68.63 208.88 67.97 209.04 67.67 C209.33 67.12 211.74 64.10 213.16 62.50 C213.59 62.02 214.85 60.50 215.96 59.12 C217.08 57.75 218.47 56.05 219.06 55.34 C219.64 54.63 220.65 53.39 221.29 52.59 C221.93 51.78 223.03 50.51 223.73 49.75 C224.42 48.99 225.00 48.27 225.00 48.15 C225.00 48.02 225.16 47.74 225.36 47.52 C227.46 45.24 228.00 44.58 228.00 44.29 C228.00 44.11 228.20 44.00 228.44 44.05 C228.84 44.12 228.88 44.65 228.94 50.11 C228.99 54.09 228.92 56.18 228.74 56.36 C228.60 56.50 227.95 56.74 227.30 56.88 L226.12 57.13 L226.05 60.23 C225.99 63.21 226.01 63.36 226.59 63.98 C227.38 64.83 227.71 65.51 227.99 66.81 C228.11 67.40 228.38 68.33 228.60 68.88 C229.15 70.32 229.16 75.56 228.61 76.11 C228.39 76.32 228.19 76.48 228.17 76.46 C228.15 76.44 225.48 76.33 222.25 76.21 Z M232.16 57.76 L231.00 56.53 L231.15 55.08 C231.22 54.28 231.19 52.39 231.07 50.88 C230.81 47.75 230.92 45.93 231.34 46.07 C231.49 46.12 231.71 46.66 231.81 47.27 C232.73 52.45 233.12 54.40 233.56 56.17 C234.04 58.12 234.04 59.00 233.54 59.00 C233.42 59.00 232.80 58.44 232.16 57.76 Z M214.25 57.65 C214.25 57.46 214.42 57.24 214.62 57.16 C215.04 57.00 215.06 57.04 214.85 57.60 C214.66 58.09 214.25 58.13 214.25 57.65 Z M215.29 56.36 C215.34 56.12 215.53 55.87 215.71 55.80 C215.93 55.73 216.02 55.85 215.96 56.14 C215.91 56.38 215.72 56.63 215.54 56.70 C215.32 56.77 215.23 56.65 215.29 56.36 Z M216.29 54.86 C216.41 54.32 216.85 54.29 216.95 54.81 C217.01 55.09 216.88 55.25 216.62 55.25 C216.38 55.25 216.25 55.09 216.29 54.86 Z M217.25 53.62 C217.25 53.41 217.42 53.17 217.62 53.09 C217.83 53.01 218.00 52.79 218.00 52.60 C218.00 52.40 218.22 52.05 218.50 51.82 C218.78 51.58 219.00 51.29 219.00 51.17 C219.00 50.95 219.87 49.78 220.63 48.98 C220.83 48.76 221.00 48.50 221.00 48.40 C221.00 48.29 221.68 47.38 222.50 46.38 C223.32 45.37 224.00 44.47 224.00 44.38 C224.00 44.28 224.65 43.40 225.44 42.42 C227.13 40.30 227.85 39.29 228.07 38.69 C228.16 38.45 228.41 38.25 228.62 38.25 C229.49 38.25 228.82 40.56 227.65 41.62 C227.05 42.16 225.00 44.69 225.00 44.89 C225.00 45.15 223.02 47.53 222.44 47.95 C222.20 48.13 222.00 48.43 222.00 48.61 C222.00 48.80 221.83 49.01 221.62 49.09 C221.41 49.17 221.13 49.52 221.00 49.87 C220.87 50.22 220.65 50.50 220.51 50.50 C220.37 50.50 220.25 50.65 220.25 50.83 C220.25 51.01 219.74 51.69 219.12 52.33 C218.51 52.98 218.00 53.62 218.00 53.75 C218.00 53.89 217.83 54.00 217.62 54.00 C217.42 54.00 217.25 53.83 217.25 53.62 Z M235.85 49.85 C235.93 49.64 236.00 47.25 236.00 44.54 C235.99 39.72 235.81 38.41 235.25 39.25 C234.80 39.95 235.04 50.25 235.51 50.25 C235.61 50.25 235.76 50.07 235.85 49.85 Z M231.10 35.64 C230.90 35.14 231.19 34.75 231.73 34.75 C232.29 34.75 232.85 35.38 232.63 35.74 C232.39 36.13 231.25 36.05 231.10 35.64 Z M228.25 35.50 C228.25 35.36 228.42 35.25 228.62 35.25 C228.83 35.25 229.00 35.36 229.00 35.50 C229.00 35.64 228.83 35.75 228.62 35.75 C228.42 35.75 228.25 35.64 228.25 35.50 Z M234.25 34.89 C234.25 34.49 234.60 34.19 234.82 34.41 C235.02 34.60 234.75 35.25 234.47 35.25 C234.35 35.25 234.25 35.09 234.25 34.89 Z M227.35 33.89 C227.18 33.46 228.21 32.00 228.67 32.00 C229.09 32.00 229.11 33.36 228.69 33.68 C228.07 34.16 227.48 34.25 227.35 33.89 Z M225.97 31.81 C225.63 31.44 225.03 30.64 224.63 30.05 C224.24 29.46 223.75 28.89 223.55 28.77 C223.12 28.53 223.36 28.00 223.90 28.00 C224.10 28.00 224.33 28.17 224.41 28.38 C224.49 28.60 224.91 28.94 225.34 29.14 C227.17 30.02 228.00 30.52 228.00 30.74 C228.00 30.86 227.68 31.31 227.30 31.74 L226.60 32.50 L225.97 31.81 Z"/>
</svg>
