<svg xmlns="http://www.w3.org/2000/svg" viewBox="0 0 450 95" width="450" height="95">
  <path fill="#000000" fill-rule="evenodd" d="M392.41 94.63 C393.03 94.30 396.70 94.25 420.44 94.25 L447.76 94.25 L448.87 93.69 L449.99 93.12 L449.99 84.57 C450.00 76.69 449.97 76.01 449.56 75.78 C449.19 75.57 449.11 75.03 449.00 72.10 C448.91 69.67 448.78 68.63 448.56 68.56 C448.32 68.48 448.25 69.29 448.25 72.05 C448.25 74.03 448.36 75.76 448.49 75.89 C448.62 76.02 448.75 77.36 448.77 78.86 C448.80 81.18 448.74 81.64 448.38 81.90 C447.89 82.26 447.37 82.12 446.71 81.46 C446.34 81.09 445.85 81.00 444.26 81.00 C443.16 81.00 442.21 80.88 442.12 80.74 C441.88 80.35 442.42 79.83 443.24 79.67 C444.21 79.47 444.47 78.64 443.77 77.90 C443.08 77.16 443.11 76.89 444.00 75.96 C444.87 75.05 444.89 74.93 444.34 74.37 C444.05 74.09 443.71 74.01 443.27 74.12 C442.92 74.21 442.32 74.34 441.95 74.42 C441.58 74.49 440.74 75.05 440.08 75.65 C439.43 76.25 438.52 76.87 438.07 77.02 C436.93 77.39 436.96 78.26 438.15 79.38 C439.40 80.56 439.19 80.86 437.07 80.95 C435.41 81.02 435.27 80.98 434.78 80.35 C434.32 79.77 434.25 79.35 434.25 77.04 C434.25 74.52 434.22 74.37 433.58 73.70 C432.28 72.35 430.21 72.98 429.10 75.06 C428.90 75.44 428.56 75.75 428.34 75.75 C428.01 75.75 427.97 75.56 428.12 74.56 C428.22 73.91 428.41 73.18 428.54 72.93 C428.87 72.30 428.58 71.94 428.00 72.25 C427.36 72.59 427.00 74.00 427.00 76.16 C427.00 77.74 427.06 77.98 427.57 78.32 C427.93 78.55 428.26 79.16 428.47 79.98 C428.96 81.89 428.76 82.03 425.65 81.95 L423.12 81.88 L423.20 80.73 C423.30 79.28 422.93 78.95 421.33 79.05 L420.12 79.12 L420.00 80.50 L419.88 81.88 L418.00 81.88 L416.12 81.88 L416.00 81.00 C415.89 80.20 415.80 80.12 414.94 80.05 C414.09 79.98 414.00 80.03 414.00 80.59 C414.00 81.97 413.94 82.00 410.60 82.00 L407.51 82.00 L407.35 81.35 C407.21 80.83 407.33 80.58 407.90 80.10 C408.30 79.76 408.99 79.33 409.44 79.13 C410.29 78.76 410.51 78.15 409.87 77.91 C409.41 77.73 408.25 78.15 408.25 78.49 C408.25 78.63 408.11 78.75 407.94 78.75 C407.77 78.75 407.04 79.03 406.33 79.36 C405.13 79.92 405.03 80.04 404.95 80.92 C404.88 81.85 404.85 81.88 403.90 81.88 C403.07 81.88 402.85 81.76 402.50 81.12 C402.27 80.71 401.88 80.38 401.62 80.38 C401.37 80.38 400.98 80.71 400.75 81.12 L400.33 81.88 L396.46 81.94 C392.84 82.01 392.56 81.98 392.13 81.51 C391.56 80.88 391.29 80.88 390.50 81.50 C389.95 81.93 389.47 81.99 386.58 81.99 L383.29 82.00 L382.83 81.06 C382.49 80.35 382.22 80.12 381.75 80.12 C381.24 80.12 381.11 80.26 381.04 80.87 C380.99 81.29 380.82 81.71 380.66 81.81 C380.32 82.03 360.97 82.07 360.40 81.85 C359.97 81.69 359.38 79.89 359.63 79.49 C359.72 79.34 362.91 79.25 367.97 79.25 C376.56 79.25 377.31 79.16 376.92 78.16 C376.78 77.79 375.91 77.75 368.04 77.75 C361.03 77.75 359.26 77.68 359.03 77.41 C358.84 77.18 357.76 77.02 355.60 76.91 C353.87 76.82 352.25 76.63 352.00 76.50 C351.76 76.37 349.77 76.15 347.59 76.00 C345.41 75.86 342.98 75.62 342.18 75.46 C340.54 75.14 340.18 75.32 339.48 76.80 C339.27 77.25 338.83 78.15 338.52 78.79 C337.68 80.51 337.84 80.87 339.47 80.92 C340.85 80.96 341.43 81.25 341.14 81.73 C340.94 82.05 335.54 82.10 335.04 81.78 C334.59 81.50 334.26 79.94 334.26 78.05 C334.25 76.70 334.16 76.39 333.63 75.90 L333.01 75.33 L333.71 74.67 L334.40 74.00 L342.70 74.00 L350.99 74.00 L351.15 73.36 C351.24 73.00 351.21 72.61 351.09 72.49 C350.97 72.37 346.71 72.21 341.62 72.14 C323.60 71.87 317.17 71.65 317.06 71.31 C316.91 70.87 315.65 70.25 314.90 70.25 C314.27 70.25 314.18 70.39 313.87 72.00 C313.77 72.48 313.52 73.07 313.31 73.31 C313.10 73.54 312.92 74.15 312.90 74.66 C312.88 75.46 312.96 75.60 313.62 75.82 C314.65 76.17 314.74 76.37 314.75 78.34 C314.75 79.96 314.32 81.30 313.64 81.79 C313.28 82.05 310.66 81.97 310.31 81.69 C310.09 81.51 310.00 80.42 310.00 77.85 C310.00 74.52 309.96 74.25 309.50 74.00 C308.87 73.66 308.87 73.23 309.50 72.50 C309.90 72.04 310.00 71.56 310.00 70.08 L310.00 68.24 L308.84 67.50 C308.20 67.10 307.56 66.72 307.40 66.67 C307.22 66.60 307.27 66.30 307.56 65.76 C308.00 64.96 308.13 63.64 307.85 62.90 C307.76 62.66 307.40 62.50 306.99 62.50 C306.46 62.50 306.19 62.68 305.95 63.18 C305.77 63.56 305.40 63.91 305.12 63.96 C304.22 64.13 304.00 64.52 303.99 65.97 C303.99 66.74 303.87 67.83 303.73 68.38 C303.17 70.52 303.17 70.52 303.72 70.91 C304.84 71.69 304.21 72.75 302.60 72.75 C301.76 72.75 301.48 72.87 301.15 73.37 C300.72 74.03 300.02 74.22 299.97 73.69 C299.95 73.52 299.96 72.86 299.99 72.23 C300.04 71.02 299.59 70.25 298.82 70.25 C298.60 70.25 297.95 70.53 297.37 70.87 C296.79 71.21 296.24 71.41 296.16 71.32 C296.07 71.24 296.00 70.46 296.00 69.60 C296.00 68.05 296.02 68.01 297.23 66.82 C298.99 65.09 299.33 63.00 297.84 63.00 C297.38 63.00 296.89 63.31 296.25 64.00 C294.95 65.41 293.63 65.33 294.29 63.89 C294.52 63.39 294.52 63.17 294.29 62.94 C293.73 62.38 294.01 61.63 295.13 60.65 C295.75 60.11 296.25 59.57 296.25 59.45 C296.25 59.34 295.97 59.11 295.62 58.95 C295.28 58.80 295.00 58.52 295.00 58.33 C295.00 57.45 294.16 57.77 292.36 59.35 C290.59 60.90 290.40 61.00 289.25 61.00 C287.88 61.00 287.25 61.56 287.25 62.78 C287.25 63.52 287.63 63.75 288.87 63.75 C289.33 63.75 289.96 63.97 290.28 64.24 C291.28 65.08 290.53 65.26 286.14 65.19 L282.16 65.12 L281.95 64.34 C281.80 63.76 281.58 63.53 281.05 63.42 C280.48 63.31 280.28 63.07 280.03 62.27 C279.82 61.56 279.59 61.25 279.27 61.25 C279.02 61.25 278.53 61.02 278.18 60.75 C277.64 60.32 277.17 60.25 275.00 60.25 L272.45 60.25 L272.62 58.79 L272.79 57.32 L271.62 56.14 C270.70 55.20 270.49 54.84 270.63 54.41 C271.15 52.77 271.29 51.59 271.03 50.94 C270.88 50.56 270.64 50.25 270.50 50.25 C270.18 50.25 269.75 51.32 269.75 52.14 C269.75 53.03 268.50 54.67 267.63 54.92 C267.04 55.09 266.84 55.33 266.70 56.01 C266.61 56.49 266.45 57.19 266.36 57.56 C266.17 58.34 266.54 58.93 267.43 59.27 C268.08 59.52 268.18 59.95 267.62 60.16 C267.16 60.34 264.75 60.06 264.28 59.77 C264.02 59.61 263.95 58.84 263.98 56.50 C264.03 53.22 264.43 51.82 265.50 51.25 C265.77 51.11 266.28 50.70 266.64 50.34 C267.54 49.44 267.12 49.05 265.75 49.50 C264.21 50.01 264.13 49.83 264.09 45.43 C264.05 41.37 264.25 40.44 265.26 40.12 C265.54 40.03 266.25 39.52 266.82 38.98 C267.40 38.45 268.02 38.00 268.20 38.00 C268.37 38.00 268.58 37.84 268.66 37.63 C268.73 37.43 269.02 37.20 269.30 37.11 C269.57 37.02 270.01 36.76 270.26 36.54 C270.51 36.31 270.89 35.98 271.11 35.80 C271.33 35.62 271.45 35.36 271.37 35.24 C271.14 34.88 270.22 34.96 269.77 35.37 C268.51 36.55 267.88 37.00 267.48 37.00 C267.24 37.00 266.89 37.06 266.70 37.13 C266.48 37.22 266.25 36.97 266.05 36.43 C265.65 35.32 265.65 35.33 266.38 35.15 C266.78 35.05 267.00 34.81 267.00 34.50 C267.00 34.10 266.83 34.00 266.17 34.00 C264.86 34.00 264.75 33.72 264.75 30.37 C264.75 28.71 264.65 27.24 264.52 27.11 C264.40 26.98 264.26 22.69 264.21 17.58 C264.14 10.25 264.19 8.21 264.45 7.96 C264.71 7.69 264.79 7.74 264.92 8.20 C265.01 8.56 265.22 8.74 265.47 8.69 C265.80 8.63 265.86 8.34 265.79 7.11 C265.70 5.43 265.90 5.10 267.12 4.96 C267.86 4.88 267.88 4.85 267.95 3.25 C267.99 2.36 267.96 1.26 267.88 0.81 L267.73 -0.00 L265.02 -0.00 C261.87 0.00 262.01 -0.13 262.00 2.91 C262.00 4.40 262.08 4.75 262.49 5.03 C262.96 5.36 262.99 5.83 263.15 16.12 C263.24 22.04 263.40 27.04 263.51 27.25 C263.61 27.46 263.74 28.97 263.78 30.60 L263.86 33.58 L263.01 33.87 C262.22 34.14 262.12 34.29 261.70 35.89 C261.46 36.85 261.14 38.26 261.00 39.03 C260.86 39.81 260.60 40.88 260.41 41.41 C260.23 41.94 259.87 43.48 259.62 44.82 C259.13 47.48 258.80 48.17 258.16 47.92 C257.57 47.70 257.25 46.69 257.25 45.05 C257.24 43.41 257.20 43.34 255.93 42.50 C254.98 41.87 254.57 41.07 254.85 40.36 C254.93 40.15 254.83 39.57 254.62 39.08 C254.38 38.51 254.25 37.36 254.25 35.88 C254.25 34.61 254.18 32.55 254.09 31.29 C253.94 29.25 253.87 29.00 253.44 29.00 C252.98 29.00 252.97 29.17 253.14 33.94 C253.23 36.65 253.42 39.01 253.55 39.17 C253.68 39.33 253.75 39.84 253.70 40.30 C253.64 40.96 253.53 41.11 253.12 41.05 C251.65 40.82 246.25 40.85 246.25 41.08 C246.25 41.23 246.49 41.60 246.78 41.91 C247.47 42.64 247.26 43.68 246.37 43.90 C245.59 44.09 245.56 44.80 246.31 45.13 C246.79 45.34 246.89 45.60 246.95 46.83 C247.04 48.51 246.79 48.94 245.67 49.05 C244.57 49.15 244.61 49.84 245.72 50.00 C246.75 50.15 247.25 50.80 246.84 51.44 C246.69 51.68 246.38 51.84 246.16 51.80 C245.60 51.70 244.70 52.22 244.82 52.58 C244.87 52.74 245.36 52.93 245.89 53.00 C247.24 53.17 247.23 53.83 245.88 54.00 C244.58 54.16 244.49 54.84 245.75 54.96 C246.71 55.05 247.11 55.44 246.72 55.91 C246.54 56.13 245.95 56.17 244.77 56.08 C243.23 55.95 243.03 55.98 242.54 56.51 C241.96 57.13 241.85 57.63 242.24 57.87 C242.37 57.95 242.70 58.33 242.97 58.71 L243.46 59.40 L242.73 60.57 C241.83 62.02 241.80 62.89 242.63 63.76 C242.98 64.12 243.36 64.77 243.49 65.21 C243.88 66.57 243.45 66.74 239.80 66.72 C238.05 66.71 234.23 66.78 231.30 66.88 L225.97 67.07 L226.05 67.72 C226.11 68.26 226.23 68.36 226.75 68.28 C227.87 68.11 240.87 68.30 241.08 68.49 C241.19 68.59 240.87 69.03 240.38 69.46 L239.48 70.25 L230.87 70.25 L222.25 70.25 L222.26 69.56 C222.26 69.18 222.43 68.59 222.62 68.25 C223.11 67.41 223.09 66.02 222.59 65.47 C222.37 65.22 222.26 64.84 222.34 64.62 C222.54 64.10 223.00 64.38 223.00 65.01 C223.00 65.60 223.63 65.66 223.85 65.10 C223.93 64.89 224.00 64.38 224.00 63.97 C224.00 63.56 224.22 62.79 224.50 62.25 C224.77 61.71 225.01 61.01 225.02 60.70 C225.03 60.38 225.42 59.45 225.89 58.62 C226.35 57.80 226.86 56.82 227.02 56.44 C227.17 56.06 227.39 55.75 227.50 55.75 C227.61 55.75 227.88 55.33 228.10 54.81 C228.32 54.30 228.64 53.65 228.81 53.38 C228.98 53.10 229.36 52.48 229.65 52.00 C230.23 51.07 231.35 49.07 231.93 47.95 C232.34 47.14 233.74 45.61 233.78 45.91 C233.80 46.03 233.83 47.48 233.85 49.12 L233.88 52.12 L234.56 52.20 C235.44 52.30 235.68 51.75 235.13 50.91 C234.81 50.43 234.73 49.76 234.77 47.95 C234.80 46.49 234.70 45.38 234.50 44.96 C234.23 44.37 234.26 44.17 234.74 43.39 C235.30 42.49 235.28 41.75 234.71 41.75 C234.55 41.75 231.39 44.78 227.71 48.48 L221.00 55.20 L221.00 61.96 C221.00 69.62 221.13 69.20 218.93 68.78 C217.20 68.46 216.98 68.72 217.06 71.00 C217.12 72.73 217.09 72.88 216.62 72.88 C216.15 72.88 216.13 72.73 216.20 69.65 C216.28 66.24 216.44 65.70 217.55 65.15 C218.03 64.91 218.14 64.64 218.20 63.43 C218.28 61.93 218.29 61.94 216.97 61.65 C216.58 61.56 216.24 61.27 216.13 60.94 C215.95 60.36 215.56 54.38 215.34 48.65 C215.27 46.58 215.10 45.25 214.89 44.95 C214.62 44.56 214.63 44.28 214.95 43.30 C215.15 42.66 215.47 41.84 215.64 41.50 C215.81 41.16 216.04 40.42 216.14 39.88 C216.24 39.33 216.47 38.65 216.64 38.38 C216.82 38.10 217.04 37.42 217.14 36.88 C217.24 36.33 217.46 35.65 217.63 35.38 C217.80 35.10 218.02 34.44 218.12 33.90 C218.21 33.37 218.46 32.67 218.66 32.35 C219.06 31.75 218.94 31.24 218.42 31.26 C217.93 31.28 216.99 32.99 216.83 34.15 C216.75 34.75 216.53 35.37 216.35 35.52 C216.16 35.68 215.94 36.35 215.85 37.02 C215.76 37.69 215.53 38.37 215.35 38.52 C215.16 38.68 214.94 39.35 214.85 40.02 C214.76 40.69 214.53 41.37 214.34 41.53 C214.15 41.68 214.00 42.18 214.00 42.63 C214.00 44.01 213.49 44.16 211.83 43.25 C211.03 42.81 210.26 42.36 210.12 42.25 C209.70 41.91 206.83 40.50 206.56 40.50 C206.17 40.50 204.00 44.48 203.70 45.75 C203.42 46.95 203.41 47.68 203.64 50.90 C203.80 53.14 203.53 53.75 202.37 53.75 C201.36 53.75 201.20 53.05 201.35 49.17 C201.43 47.22 201.56 43.79 201.64 41.55 C201.79 37.53 201.80 37.47 202.40 37.24 C203.08 36.98 203.18 36.46 202.62 36.00 C201.97 35.46 202.21 35.11 203.61 34.53 C204.36 34.22 205.04 33.76 205.12 33.51 C205.28 33.03 204.92 31.89 204.54 31.65 C204.41 31.57 204.23 31.11 204.14 30.63 C204.05 30.14 203.76 29.64 203.49 29.49 C203.20 29.34 203.00 28.97 203.00 28.61 C203.00 28.26 202.83 27.72 202.62 27.40 C202.10 26.61 202.38 26.04 203.33 25.95 C204.52 25.84 204.37 25.16 203.12 25.00 L202.12 24.88 L201.90 18.66 C201.66 11.78 201.62 11.97 203.25 12.02 C204.79 12.07 205.00 12.01 205.00 11.54 C205.00 11.19 204.72 11.01 203.94 10.84 C203.19 10.67 202.91 10.49 202.98 10.24 C203.49 8.48 202.56 7.51 201.90 9.11 C201.38 10.36 200.53 10.27 200.01 8.91 C199.84 8.45 199.60 8.24 199.31 8.30 C198.78 8.40 198.60 9.39 199.02 9.90 C199.43 10.39 199.11 10.68 197.87 10.94 C196.46 11.23 196.54 11.86 198.00 11.94 C200.00 12.06 200.25 12.18 200.25 13.02 C200.25 13.44 200.38 14.02 200.54 14.32 C200.84 14.89 200.97 32.36 200.68 32.66 C200.60 32.74 199.81 32.86 198.92 32.93 C197.09 33.08 197.15 33.13 196.37 30.88 C195.70 28.94 195.13 28.84 195.11 30.66 C195.10 32.37 194.78 32.71 193.04 32.80 C191.82 32.86 191.62 32.94 191.62 33.38 C191.62 33.80 191.84 33.90 193.12 34.03 C194.85 34.21 197.63 35.49 197.86 36.21 C197.94 36.46 197.82 37.11 197.60 37.65 C197.37 38.19 197.04 39.19 196.87 39.88 C196.69 40.56 196.43 41.46 196.29 41.88 C196.14 42.29 195.79 43.41 195.51 44.38 C194.37 48.25 193.92 49.68 193.47 50.88 C193.21 51.57 193.00 52.38 193.00 52.67 C193.00 53.45 192.34 54.00 191.41 54.00 C190.22 54.00 190.04 53.68 190.19 51.86 C190.31 50.31 190.30 50.26 189.66 50.01 C189.09 49.80 189.00 49.62 189.00 48.69 C189.01 48.11 189.17 46.95 189.37 46.12 C189.90 43.91 189.85 42.76 189.16 41.75 C188.83 41.27 188.32 40.29 188.01 39.58 L187.45 38.28 L188.13 37.39 C188.80 36.51 188.82 35.75 188.18 35.75 C187.99 35.75 187.37 36.11 186.80 36.55 C185.59 37.48 185.47 38.12 186.28 39.42 L186.81 40.28 L186.03 41.20 C184.46 43.05 184.16 43.91 184.08 46.62 C184.05 48.00 183.93 49.91 183.82 50.88 L183.62 52.62 L181.01 52.70 C178.79 52.76 178.31 52.85 177.85 53.27 C177.56 53.54 176.92 53.83 176.44 53.91 C175.69 54.03 175.49 53.96 175.15 53.45 C174.84 52.98 174.81 52.66 175.00 51.99 C175.14 51.52 175.25 50.09 175.25 48.82 C175.25 46.63 175.22 46.49 174.62 46.10 C174.22 45.83 174.00 45.46 174.00 45.02 C174.00 44.13 173.58 43.75 172.59 43.75 C171.24 43.75 170.91 44.31 171.07 46.41 C171.19 47.92 171.14 48.27 170.77 48.61 C170.53 48.82 170.22 49.00 170.08 49.00 C169.49 49.00 168.88 50.08 168.84 51.18 C168.82 51.82 168.66 52.40 168.47 52.53 C168.28 52.65 167.09 52.74 165.83 52.75 C163.54 52.75 163.53 52.75 163.09 52.00 C162.39 50.82 161.51 50.97 160.57 52.44 C160.15 53.09 159.76 53.85 159.71 54.12 C159.57 54.91 158.76 54.89 158.11 54.09 C157.43 53.24 156.91 53.52 157.04 54.65 C157.11 55.18 157.47 55.59 158.56 56.34 L160.00 57.32 L160.00 69.65 C160.00 81.59 159.98 81.99 159.52 82.24 C158.85 82.60 158.92 82.62 157.74 81.49 L156.68 80.47 L156.82 78.80 C157.00 76.70 157.12 76.39 157.92 76.03 C158.45 75.79 158.53 75.62 158.40 75.06 C158.31 74.68 158.18 73.70 158.09 72.88 C157.91 71.07 157.05 69.02 156.45 69.01 C156.04 69.00 155.00 70.21 155.00 70.71 C155.00 71.58 152.89 72.15 152.30 71.43 C152.15 71.26 151.95 70.50 151.86 69.74 C151.61 67.82 151.48 67.72 149.37 67.77 C147.90 67.81 147.48 67.73 147.09 67.35 C145.49 65.79 144.40 65.00 144.16 65.24 C143.84 65.56 144.41 66.69 145.07 67.03 C145.32 67.17 145.87 67.64 146.29 68.08 C146.99 68.81 147.04 68.97 146.89 70.12 C146.69 71.68 146.28 72.00 144.51 72.00 C143.42 72.00 143.06 72.10 142.83 72.47 C142.66 72.73 142.16 73.00 141.70 73.08 C141.25 73.15 140.58 73.29 140.23 73.38 C139.64 73.53 139.05 73.01 133.98 67.89 C130.89 64.78 128.18 62.25 127.94 62.25 C126.96 62.25 127.57 63.34 130.06 66.01 C136.97 73.42 136.95 73.40 136.83 74.03 C136.76 74.41 136.95 74.93 137.36 75.49 C138.11 76.50 138.15 76.95 137.57 78.20 C137.33 78.71 137.08 79.80 137.01 80.62 L136.88 82.12 L134.56 82.20 C132.70 82.25 132.25 82.20 132.25 81.91 C132.25 81.51 133.26 81.06 134.38 80.95 C135.09 80.88 135.12 80.83 135.05 79.79 C134.96 78.37 134.39 77.30 133.63 77.10 C133.29 77.02 132.09 77.08 130.95 77.24 C129.81 77.39 127.58 77.63 126.00 77.76 C124.42 77.90 121.94 78.12 120.50 78.27 C119.06 78.42 117.25 78.60 116.49 78.66 L115.10 78.79 L114.00 77.58 C113.40 76.92 111.76 75.14 110.36 73.62 C108.96 72.11 107.38 70.38 106.85 69.77 C104.62 67.23 104.42 67.12 103.64 67.98 C103.22 68.45 103.35 68.64 108.01 73.97 C113.55 80.32 114.08 81.00 113.86 81.58 C113.71 81.96 113.04 82.00 107.06 82.00 C101.19 82.00 100.36 81.95 99.95 81.58 C99.62 81.28 99.01 81.16 97.81 81.14 C96.73 81.13 95.82 80.97 95.27 80.69 C94.18 80.12 93.71 80.14 92.93 80.75 C92.41 81.16 91.92 81.25 90.22 81.25 C87.72 81.25 82.52 80.77 81.99 80.49 C81.78 80.38 80.21 80.15 78.50 79.99 C76.18 79.77 75.24 79.57 74.75 79.21 C74.19 78.80 73.74 78.74 71.51 78.80 L68.92 78.88 L68.67 79.62 C68.34 80.65 68.13 80.74 66.17 80.75 C64.25 80.75 63.58 80.49 63.24 79.61 C63.06 79.12 62.84 79.00 62.13 79.00 C61.40 79.00 61.19 79.12 60.99 79.65 L60.74 80.31 L57.06 80.16 C55.03 80.07 51.35 79.93 48.88 79.85 C46.40 79.76 44.20 79.60 43.98 79.48 C43.76 79.37 40.44 79.17 36.60 79.03 C32.76 78.89 29.32 78.67 28.95 78.53 C28.59 78.39 26.28 78.16 23.82 78.01 C21.37 77.87 18.97 77.63 18.49 77.49 C18.01 77.36 15.66 77.13 13.27 76.98 C10.62 76.82 8.58 76.58 8.05 76.36 C7.06 75.94 6.15 75.90 5.53 76.23 C5.22 76.40 4.89 76.33 4.37 76.00 C3.84 75.65 3.54 75.59 3.19 75.78 C2.09 76.37 2.06 76.18 2.15 69.02 C2.23 62.56 2.21 62.25 1.77 62.25 C1.20 62.25 1.04 63.77 0.87 70.86 C0.78 74.77 0.70 75.63 0.38 75.81 C-0.08 76.07 -0.14 77.76 0.31 78.21 C0.59 78.49 0.99 79.67 1.88 82.88 C2.36 84.62 2.98 86.49 3.36 87.38 C3.54 87.79 3.76 88.52 3.86 89.00 C3.96 89.48 4.24 90.44 4.50 91.12 C4.75 91.81 5.10 92.88 5.27 93.50 C5.45 94.12 5.63 94.71 5.68 94.81 C5.74 94.92 92.61 95.00 198.74 95.00 C369.41 95.00 391.78 94.96 392.41 94.63 Z M260.30 65.45 C259.87 65.02 259.93 63.49 260.39 62.98 C260.87 62.45 260.94 61.15 260.51 60.63 C260.33 60.42 259.88 60.25 259.50 60.25 C258.67 60.25 258.46 59.83 258.75 58.71 C258.86 58.25 259.09 57.09 259.24 56.12 C259.70 53.26 260.12 51.53 260.43 51.22 C260.59 51.06 260.99 51.01 261.34 51.09 L261.97 51.25 L261.97 57.89 C261.98 61.54 261.87 64.80 261.75 65.14 C261.50 65.79 260.79 65.94 260.30 65.45 Z M222.17 61.89 C222.02 61.52 222.65 60.82 222.90 61.07 C223.10 61.26 222.77 62.25 222.51 62.25 C222.40 62.25 222.24 62.09 222.17 61.89 Z M293.01 60.56 C293.02 60.32 293.37 59.86 293.78 59.53 C294.37 59.06 294.60 59.00 294.83 59.24 C295.06 59.48 295.00 59.63 294.56 59.93 C294.25 60.14 294.00 60.47 294.00 60.66 C294.00 60.84 293.77 61.00 293.50 61.00 C293.19 61.00 293.01 60.84 293.01 60.56 Z M309.12 60.50 C309.12 60.22 308.76 60.11 307.65 60.05 C306.17 59.97 305.54 60.21 305.87 60.74 C306.15 61.19 309.12 60.97 309.12 60.50 Z M222.91 60.19 C222.63 59.16 222.73 58.75 223.24 58.75 C223.92 58.75 224.35 59.60 224.00 60.25 C223.64 60.92 223.09 60.88 222.91 60.19 Z M222.10 57.89 C221.92 57.42 222.18 57.00 222.64 57.00 C222.86 57.00 223.00 57.25 223.00 57.62 C223.00 58.31 222.33 58.51 222.10 57.89 Z M223.49 56.48 C222.79 55.60 222.72 55.39 222.96 54.86 C223.29 54.14 223.70 54.07 223.92 54.69 C224.01 54.93 224.30 55.37 224.57 55.67 C224.92 56.06 225.01 56.41 224.90 56.86 C224.68 57.74 224.42 57.67 223.49 56.48 Z M225.10 55.14 C224.90 54.63 225.42 54.00 226.05 54.00 C226.79 54.00 226.57 55.35 225.81 55.46 C225.47 55.50 225.19 55.38 225.10 55.14 Z M195.34 53.37 C195.26 53.16 195.25 52.74 195.33 52.43 C195.80 50.45 196.44 48.22 196.57 48.09 C196.66 48.01 197.22 47.89 197.82 47.82 C199.47 47.63 199.75 48.05 199.75 50.66 C199.75 53.63 199.66 53.75 197.36 53.75 C195.91 53.75 195.45 53.66 195.34 53.37 Z M257.25 51.79 C257.25 50.69 257.38 50.15 257.73 49.72 C258.09 49.27 258.29 49.20 258.50 49.41 C258.72 49.62 258.70 49.87 258.42 50.42 C258.21 50.82 257.96 51.56 257.87 52.07 C257.59 53.56 257.25 53.41 257.25 51.79 Z M225.38 52.75 C225.13 52.36 225.48 52.00 226.10 52.00 C226.42 52.00 226.88 51.77 227.13 51.49 C227.66 50.90 228.58 50.93 228.70 51.53 C228.75 51.82 228.53 51.99 227.91 52.10 C227.44 52.19 226.91 52.43 226.74 52.63 C226.40 53.05 225.60 53.12 225.38 52.75 Z M228.41 49.83 C228.13 49.54 228.24 49.25 228.62 49.25 C228.83 49.25 229.00 49.36 229.00 49.49 C229.00 49.80 228.61 50.03 228.41 49.83 Z M260.68 49.84 C260.25 49.41 260.54 49.00 261.27 49.00 C261.87 49.00 262.02 49.10 261.95 49.44 C261.87 49.89 261.00 50.16 260.68 49.84 Z M261.09 47.74 C260.72 47.37 261.30 44.00 261.73 44.00 C262.10 44.00 262.33 47.22 261.99 47.64 C261.63 48.07 261.44 48.09 261.09 47.74 Z M197.56 46.83 C197.05 46.63 197.20 45.50 198.02 43.38 C198.44 42.27 198.90 41.01 199.03 40.56 C199.16 40.12 199.39 39.75 199.53 39.75 C199.87 39.75 199.72 46.14 199.38 46.46 C199.05 46.76 197.96 46.98 197.56 46.83 Z M264.42 38.83 C264.15 38.57 264.22 36.00 264.50 36.00 C264.64 36.00 264.75 36.12 264.75 36.26 C264.75 36.41 265.05 36.80 265.41 37.14 C265.99 37.68 266.04 37.83 265.79 38.38 C265.53 38.96 264.79 39.21 264.42 38.83 Z M202.03 32.66 C201.85 32.44 201.75 31.75 201.80 30.96 C201.86 29.82 201.95 29.62 202.38 29.62 C202.75 29.62 202.90 29.82 202.96 30.38 C203.00 30.79 203.21 31.31 203.42 31.54 C203.62 31.77 203.75 32.17 203.71 32.42 C203.60 33.00 202.44 33.16 202.03 32.66 Z M264.17 5.84 C263.94 5.61 264.22 5.25 264.64 5.25 C264.84 5.25 265.00 5.42 265.00 5.62 C265.00 6.00 264.47 6.14 264.17 5.84 Z M263.17 3.83 C262.90 3.56 262.98 1.29 263.26 1.12 C263.41 1.03 263.80 1.02 264.14 1.11 C264.67 1.24 264.75 1.40 264.75 2.33 C264.75 2.92 264.62 3.54 264.45 3.70 C264.12 4.03 263.43 4.10 263.17 3.83 Z M266.05 3.78 C265.83 3.65 265.75 3.16 265.80 2.35 C265.86 1.32 265.95 1.12 266.38 1.12 C266.81 1.12 266.88 1.29 266.88 2.48 C266.88 3.84 266.66 4.17 266.05 3.78 Z"/>
</svg>
